<?xml version="1.0" encoding="iso-8859-1"?>
<!-- Generator: Adobe Illustrator 17.1.0, SVG Export Plug-In . SVG Version: 6.00 Build 0)  -->
<!DOCTYPE svg PUBLIC "-//W3C//DTD SVG 1.1//EN" "http://www.w3.org/Graphics/SVG/1.1/DTD/svg11.dtd">
<svg xmlns="http://www.w3.org/2000/svg" xmlns:xlink="http://www.w3.org/1999/xlink" version="1.1" id="Capa_1" x="0px" y="0px" viewBox="0 0 455 455" style="enable-background:new 0 0 455 455;" xml:space="preserve" width="512px" height="512px">
<g>
	<path d="M317.5,0h-180C111.309,0,90,21.309,90,47.5v360c0,26.191,21.309,47.5,47.5,47.5h180c26.191,0,47.5-21.309,47.5-47.5v-360   C365,21.309,343.691,0,317.5,0z M105,104.996h245v245.009H105V104.996z M137.5,15h180c17.92,0,32.5,14.58,32.5,32.5v42.496H105   V47.5C105,29.58,119.58,15,137.5,15z M317.5,440h-180c-17.92,0-32.5-14.58-32.5-32.5v-42.496h245V407.5   C350,425.42,335.42,440,317.5,440z" fill="#FFFFFF"/>
	<path d="M227.5,387.502c-8.271,0-15,6.729-15,15s6.729,15,15,15s15-6.729,15-15S235.771,387.502,227.5,387.502z" fill="#FFFFFF"/>
	<path d="M196.564,59.998h61.872c4.142,0,7.5-3.358,7.5-7.5s-3.358-7.5-7.5-7.5h-61.872c-4.142,0-7.5,3.358-7.5,7.5   S192.422,59.998,196.564,59.998z" fill="#FFFFFF"/>
	<path d="M272.498,237.014c-4.142,0-7.5,3.358-7.5,7.5v20.484h-20.624c-4.142,0-7.5,3.358-7.5,7.5s3.358,7.5,7.5,7.5h28.124   c4.142,0,7.5-3.358,7.5-7.5v-27.984C279.998,240.372,276.64,237.014,272.498,237.014z" fill="#FFFFFF"/>
	<path d="M272.498,175.002h-28.124c-4.142,0-7.5,3.358-7.5,7.5s3.358,7.5,7.5,7.5h20.624v20.763c0,4.142,3.358,7.5,7.5,7.5   s7.5-3.358,7.5-7.5v-28.263C279.998,178.36,276.64,175.002,272.498,175.002z" fill="#FFFFFF"/>
	<path d="M210.626,175.002h-28.124c-4.142,0-7.5,3.358-7.5,7.5v28.263c0,4.142,3.358,7.5,7.5,7.5s7.5-3.358,7.5-7.5v-20.763h20.624   c4.142,0,7.5-3.358,7.5-7.5S214.768,175.002,210.626,175.002z" fill="#FFFFFF"/>
	<path d="M210.626,264.998h-20.624v-20.484c0-4.142-3.358-7.5-7.5-7.5s-7.5,3.358-7.5,7.5v27.984c0,4.142,3.358,7.5,7.5,7.5h28.124   c4.142,0,7.5-3.358,7.5-7.5S214.768,264.998,210.626,264.998z" fill="#FFFFFF"/>
</g>
<g>
</g>
<g>
</g>
<g>
</g>
<g>
</g>
<g>
</g>
<g>
</g>
<g>
</g>
<g>
</g>
<g>
</g>
<g>
</g>
<g>
</g>
<g>
</g>
<g>
</g>
<g>
</g>
<g>
</g>
</svg>
