<?xml version="1.0" encoding="utf-8"?>
<!-- Generator: Adobe Illustrator 18.0.0, SVG Export Plug-In . SVG Version: 6.00 Build 0)  -->
<!DOCTYPE svg PUBLIC "-//W3C//DTD SVG 1.1//EN" "http://www.w3.org/Graphics/SVG/1.1/DTD/svg11.dtd">
<svg version="1.1" id="Layer_1" xmlns="http://www.w3.org/2000/svg" xmlns:xlink="http://www.w3.org/1999/xlink" x="0px" y="0px"
	 viewBox="0 0 2480 3508" enable-background="new 0 0 2480 3508" xml:space="preserve">
<g id="Fata">
	<g>
		
			<linearGradient id="SVGID_1_" gradientUnits="userSpaceOnUse" x1="656.9" y1="2194.3" x2="656.9" y2="3508" gradientTransform="matrix(1.8878 0 0 -1.8878 0 7136.395)">
			<stop  offset="0" style="stop-color:#006838"/>
			<stop  offset="1" style="stop-color:#39B54A"/>
		</linearGradient>
		<path fill="url(#SVGID_1_)" d="M1240.1,2994L1240.1,2994C558,2994,0,2436,0,1754.1l0,0C0,1072,558,514,1240.1,514l0,0
			c682.1,0,1240.1,558,1240.1,1240.1l0,0C2480,2436,1922,2994,1240.1,2994z"/>
	</g>
	<g>
		<g>
			<g>
				<g opacity="0.75">
					<path d="M511.4,1676.8l9.4,149.7l-155.7-136.9l-31.9,36.2l199.5,175.2l34.2-2.3l175.2-199.5l-36.2-31.9L569,1823.5l-9.4-144.8
						c27-344.3,307.3-620.7,652.8-643.2c186.7-12.1,366.8,49.1,507.4,172.5l31.9-36.2c-150.3-132-342.8-197.5-542.4-184.4
						C839.5,1011.5,539.4,1307.7,511.4,1676.8z"/>
				</g>
				<g>
					<path fill="#FFFFFF" d="M504.4,1671.8l9.4,149.7l-155.7-136.9l-31.9,36.2l199.5,175.2l34.2-2.3l175.2-199.5l-36.2-31.9
						L562,1818.5l-9.4-144.8c27-344.3,307.3-620.7,652.8-643.2c186.7-12.1,366.8,49.1,507.4,172.5l31.9-36.2
						c-150.3-132-342.8-197.5-542.4-184.4C832.5,1006.5,532.4,1302.7,504.4,1671.8z"/>
				</g>
			</g>
			<g>
				<g opacity="0.75">
					<path d="M1999.2,1710.6l155.7,136.9l31.9-36.2l-199.5-175.4l-34.2,2.3l-175.2,199.5l36.2,31.9l136.9-155.9l9.4,144.8
						c-27,344.3-307.3,620.7-652.8,643.2c-186.7,12.1-366.8-49.1-507.4-172.5l-31.9,36.2c150.3,132,342.8,197.5,542.4,184.4
						c369.8-24,670-320.4,697.9-689.4L1999.2,1710.6z"/>
				</g>
				<g>
					<path fill="#FFFFFF" d="M1992.2,1705.6l155.7,136.9l31.9-36.2l-199.5-175.4l-34.2,2.3l-175.2,199.5l36.2,31.9l136.9-155.9
						l9.4,144.8c-27,344.3-307.3,620.7-652.8,643.2c-186.7,12.1-366.8-49.1-507.4-172.5l-31.9,36.2
						c150.3,132,342.8,197.5,542.4,184.4c369.8-24,670-320.4,697.9-689.4L1992.2,1705.6z"/>
				</g>
			</g>
		</g>
	</g>
	<g>
		<g opacity="0.75">
			<path d="M1191.8,2179.7c40.6,0,80.4,0,121,0c0,44.7,0,90.8,0,137.4c8.1,0,15.5,0,23.6,0c0-47.4,0-95,0-142.3
				c17-4.2,33.4-7.7,49.5-12.5c53.8-16,100.4-43.4,135.7-88c31-38.9,46.6-83.6,50-132.9c2.6-37.8-1.3-74.8-15.9-109.9
				c-18.3-44.6-49.8-77.8-89.7-103.8c-37.6-24.5-78.9-40-122.1-50.8c-2.3-0.6-4.5-1.1-7.2-1.9c0-97.8,0-195.8,0-293.6
				c47,6.6,106.7,65.9,108,107.8c-10.4-6.8-21.7-8.5-33.4-5.9c-19.6,4.5-30.4,18.9-36.6,36.6c-7.9,22.7-4.3,44.6,8.9,64.4
				c4.3,6.4,11.3,12.3,18.3,15.9c18.1,9.3,37.8,10.2,57,4c29.8-9.6,42.7-32.3,45.5-61.7c4.7-47.8-13.2-86.8-45.7-120.8
				c-31.9-33.4-70-54.4-115.7-61.4c-2.1-0.4-4-0.9-6.6-1.5c0-13,0-26.1,0-39.5c-7.9,0-15.3,0-23.4,0c0,11.9,0,24,0,37.4
				c-40.6-3.4-80.6-3.8-121,2.6c0-13.8,0-26.8,0-40.2c-8.1,0-15.5,0-24,0c0,1.9,0,4,0,6c0,10.9-0.2,21.9,0.2,32.8
				c0.2,4.7-1.3,6.4-5.9,7.6c-27.6,6.8-53.8,16.4-78,31.5c-62.1,38.7-96.1,94.6-101.4,167.8c-2.3,32.5,0.4,64.6,9.8,95.9
				c15.1,50.6,48.5,85.9,94.2,110.6c24.4,13.2,49.8,23.2,76.3,31.1c3.8,1.1,4.9,2.8,4.9,6.6c0,113.3,0,226.7,0,340
				c0,0.9-0.2,2.1-0.4,3.4c-0.9,0-1.7,0.4-2.5,0.2c-40.8-9.8-76.3-28.5-102.1-62.5c-10.9-14.3-17.4-30.6-16.2-49.1
				c0.2-1.7,0.2-3.4,0.4-5.1c0-0.8,0.2-1.5,0.6-2.5c16.4,14.5,34.4,13,52.1,5.7c19.4-8.1,31.5-22.8,33.2-44.6
				c0.9-13.8-0.2-27.2-4.7-40.4c-9.1-26.6-29.8-42.7-58-43.8c-9.8-0.4-19.8-0.2-29.4,1.7c-7,1.3-14.3,4.3-19.6,8.9
				c-26.8,22.5-39.5,51.7-36.4,86.5c6.4,75.5,49.6,123.7,117.8,150.8c18.3,7.4,38.3,10.6,57.6,15.7c2.3,0.6,4.5,0.9,7.4,1.5
				c0,47.2,0,94.4,0,142c8.1,0,15.3,0,23.6,0C1191.8,2271.6,1191.8,2225.8,1191.8,2179.7z M1192.2,1812c1.7,0.4,2.6,0.6,3.8,0.9
				c37,9.4,74,19.1,111,28.3c5.1,1.3,6.2,3.6,6.2,8.7c-0.2,99.9-0.2,199.7-0.2,299.6c0,2.3,0,4.5,0,6.8
				c-40.8,4.5-80.6,7.2-120.8,2.1C1192.2,2042.8,1192.2,1927.7,1192.2,1812z M1192.2,1378.5c40.4-9.4,80.4-7.2,120.4-2.6
				c0,97.6,0,194.8,0,292.6c-40.6-6.2-81.2-10.8-120.4-22.5C1192.2,1556.9,1192.2,1467.8,1192.2,1378.5z M1337,1850.7
				c30.2,10.4,58.7,22.5,83.4,42.7c17.2,14,28.1,31.9,34.2,53.2c6.8,24,8.1,48.5,5.9,73.1c-3.2,34.7-15.7,65.5-41.5,90
				c-19.1,17.9-42.1,28.9-66.6,36.8c-4.9,1.5-9.8,2.8-15.1,4.5C1337,2050.4,1337,1950.9,1337,1850.7z M1168,1638.5
				c-27.4-10.8-51.2-24.5-69.8-46.3c-21.3-24.7-30-53.8-30.8-85.9c-0.6-27.2,5.9-52.5,23.2-74.2c19.6-24.4,46.4-37.4,75.3-46.6
				c0.6-0.2,1.1,0.2,1.9,0.4C1168,1469.7,1168,1553.5,1168,1638.5z"/>
		</g>
		<g>
			<g>
				<g>
					<path fill="#FFFFFF" d="M1184.8,2174.7c40.6,0,80.4,0,121,0c0,44.7,0,90.8,0,137.4c8.1,0,15.5,0,23.6,0c0-47.4,0-95,0-142.3
						c17-4.2,33.4-7.7,49.5-12.5c53.8-16,100.4-43.4,135.7-88c31-38.9,46.6-83.6,50-132.9c2.6-37.8-1.3-74.8-15.9-109.9
						c-18.3-44.6-49.8-77.8-89.7-103.8c-37.6-24.5-78.9-40-122.1-50.8c-2.3-0.6-4.5-1.1-7.2-1.9c0-97.8,0-195.8,0-293.6
						c47,6.6,106.7,65.9,108,107.8c-10.4-6.8-21.7-8.5-33.4-5.9c-19.6,4.5-30.4,18.9-36.6,36.6c-7.9,22.7-4.3,44.6,8.9,64.4
						c4.3,6.4,11.3,12.3,18.3,15.9c18.1,9.3,37.8,10.2,57,4c29.8-9.6,42.7-32.3,45.5-61.7c4.7-47.8-13.2-86.8-45.7-120.8
						c-31.9-33.4-70-54.4-115.7-61.4c-2.1-0.4-4-0.9-6.6-1.5c0-13,0-26.1,0-39.5c-7.9,0-15.3,0-23.4,0c0,11.9,0,24,0,37.4
						c-40.6-3.4-80.6-3.8-121,2.6c0-13.8,0-26.8,0-40.2c-8.1,0-15.5,0-24,0c0,1.9,0,4,0,6c0,10.9-0.2,21.9,0.2,32.8
						c0.2,4.7-1.3,6.4-5.9,7.6c-27.6,6.8-53.8,16.4-78,31.5c-62.1,38.7-96.1,94.6-101.4,167.8c-2.3,32.5,0.4,64.6,9.8,95.9
						c15.1,50.6,48.5,85.9,94.2,110.6c24.4,13.2,49.8,23.2,76.3,31.1c3.8,1.1,4.9,2.8,4.9,6.6c0,113.3,0,226.7,0,340
						c0,0.9-0.2,2.1-0.4,3.4c-0.9,0-1.7,0.4-2.5,0.2c-40.8-9.8-76.3-28.5-102.1-62.5c-10.9-14.3-17.4-30.6-16.2-49.1
						c0.2-1.7,0.2-3.4,0.4-5.1c0-0.8,0.2-1.5,0.6-2.5c16.4,14.5,34.4,13,52.1,5.7c19.4-8.1,31.5-22.8,33.2-44.6
						c0.9-13.8-0.2-27.2-4.7-40.4c-9.1-26.6-29.8-42.7-58-43.8c-9.8-0.4-19.8-0.2-29.4,1.7c-7,1.3-14.3,4.3-19.6,8.9
						c-26.8,22.5-39.5,51.7-36.4,86.5c6.4,75.5,49.6,123.7,117.8,150.8c18.3,7.4,38.3,10.6,57.6,15.7c2.3,0.6,4.5,0.9,7.4,1.5
						c0,47.2,0,94.4,0,142c8.1,0,15.3,0,23.6,0C1184.8,2266.6,1184.8,2220.8,1184.8,2174.7z M1185.2,1807c1.7,0.4,2.6,0.6,3.8,0.9
						c37,9.4,74,19.1,111,28.3c5.1,1.3,6.2,3.6,6.2,8.7c-0.2,99.9-0.2,199.7-0.2,299.6c0,2.3,0,4.5,0,6.8
						c-40.8,4.5-80.6,7.2-120.8,2.1C1185.2,2037.8,1185.2,1922.7,1185.2,1807z M1185.2,1373.5c40.4-9.4,80.4-7.2,120.4-2.6
						c0,97.6,0,194.8,0,292.6c-40.6-6.2-81.2-10.8-120.4-22.5C1185.2,1551.9,1185.2,1462.8,1185.2,1373.5z M1330,1845.7
						c30.2,10.4,58.7,22.5,83.4,42.7c17.2,14,28.1,31.9,34.2,53.2c6.8,24,8.1,48.5,5.9,73.1c-3.2,34.7-15.7,65.5-41.5,90
						c-19.1,17.9-42.1,28.9-66.6,36.8c-4.9,1.5-9.8,2.8-15.1,4.5C1330,2045.4,1330,1945.9,1330,1845.7z M1161,1633.5
						c-27.4-10.8-51.2-24.5-69.8-46.3c-21.3-24.7-30-53.8-30.8-85.9c-0.6-27.2,5.9-52.5,23.2-74.2c19.6-24.4,46.4-37.4,75.3-46.6
						c0.6-0.2,1.1,0.2,1.9,0.4C1161,1464.7,1161,1548.5,1161,1633.5z"/>
				</g>
			</g>
		</g>
	</g>
</g>
</svg>
